<svg width="163" height="60" viewBox="0 0 163 60" fill="none" xmlns="http://www.w3.org/2000/svg">
<g opacity="0.3">
<path d="M37.1246 23.5249H30.0996V44.8999H37.1246V23.5249Z" fill="#202430"/>
<path d="M45.5992 15.1748H38.5742V44.8998H45.5992V15.1748Z" fill="#202430"/>
<path d="M54.0748 15.1748H47.0498V44.8998H54.0748V15.1748Z" fill="#202430"/>
<path d="M129.674 25.7251V23.5251H122.649V44.9001H129.674V34.7251C129.674 32.1001 131.049 30.7001 133.549 30.7001H134.374V23.3501C132.249 23.4001 130.724 24.0501 129.674 25.7251Z" fill="#202430"/>
<path d="M33.5994 14C31.3494 14 29.5244 15.825 29.5244 18.075C29.5244 20.325 31.3494 22.15 33.5994 22.15C35.8494 22.15 37.6744 20.325 37.6744 18.075C37.6744 15.825 35.8494 14 33.5994 14Z" fill="#202430"/>
<path d="M114.175 25.1502C113.2 24.0752 110.9 23.1752 109.15 23.1752C103.85 23.1752 100.05 26.6752 99.0996 31.8752C98.0746 26.8752 93.7246 23.0502 88.4246 23.0502C83.0746 23.0502 78.6996 26.9252 77.7246 32.0252C76.7996 26.7502 72.6496 23.2502 67.4996 23.2502C65.5996 23.2502 63.9996 23.6752 62.6246 24.6252V15.2002H55.5996V44.9252H62.4996V42.9752C64.1746 44.5252 65.9496 45.2252 68.1496 45.2252C72.8996 45.2252 76.8996 41.5002 77.7496 36.4002C78.7496 41.4002 83.0746 45.2252 88.4246 45.2252C93.7246 45.2252 97.9746 41.5002 99.0496 36.6252C99.9496 41.9502 104.175 45.3002 109.225 45.3002C110.975 45.3002 112.875 44.7252 114.175 43.7502V44.9502H121.2V35.5252C121.2 35.1502 121.2 34.7752 121.2 34.4002C121.2 34.0252 121.2 33.6502 121.2 33.2752V23.5252H114.175V25.1502ZM66.7496 38.3752C64.4996 38.3752 62.6746 36.5502 62.6746 34.3002C62.6746 32.0502 64.4996 30.2252 66.7496 30.2252C68.9996 30.2252 70.8246 32.0502 70.8246 34.3002C70.8246 36.5502 68.9996 38.3752 66.7496 38.3752ZM88.4496 38.0502C86.1996 38.0502 84.3746 36.2252 84.3746 33.9752C84.3746 31.7252 86.1996 29.9002 88.4496 29.9002C90.6996 29.9002 92.5246 31.7252 92.5246 33.9752C92.4996 36.2252 90.6996 38.0502 88.4496 38.0502ZM109.55 38.1752C107.3 38.1752 105.475 36.3502 105.475 34.1002C105.475 31.8502 107.3 30.0252 109.55 30.0252C111.8 30.0252 113.625 31.8502 113.625 34.1002C113.625 36.3502 111.8 38.1752 109.55 38.1752Z" fill="#202430"/>
<path d="M149.975 15.1499V24.5749C148.6 23.6249 147.025 23.1999 145.1 23.1999C139.25 23.1999 134.675 27.7249 134.675 34.2499C134.675 40.3999 139.075 45.1499 144.45 45.1499C146.65 45.1499 148.45 44.4499 150.1 42.8999V44.8499H157V15.1499H149.975ZM145.825 38.3249C143.575 38.3249 141.75 36.4999 141.75 34.2499C141.75 31.9999 143.575 30.1749 145.825 30.1749C148.075 30.1749 149.9 31.9999 149.9 34.2499C149.9 36.4999 148.075 38.3249 145.825 38.3249Z" fill="#202430"/>
<path d="M18.875 23.2248C16.95 23.2248 15.375 23.6498 14 24.5998V15.1748H7V44.8998H13.9V42.9498C15.575 44.4998 17.35 45.1998 19.55 45.1998C24.9 45.1998 29.325 40.4498 29.325 34.2998C29.325 27.7748 24.75 23.2248 18.875 23.2248ZM18.125 38.3748C15.875 38.3748 14.05 36.5498 14.05 34.2998C14.05 32.0498 15.875 30.2248 18.125 30.2248C20.375 30.2248 22.2 32.0498 22.2 34.2998C22.2 36.5498 20.375 38.3748 18.125 38.3748Z" fill="#202430"/>
</g>
</svg>
