<svg width="10" height="10" viewBox="0 0 10 10" fill="none" xmlns="http://www.w3.org/2000/svg">
<g clip-path="url(#clip0_1503_2951)">
<circle cx="5.4613" cy="5.02233" r="4.48717" fill="#4640DE"/>
<mask id="path-2-inside-1_1503_2951" fill="white">
<path d="M5.46154 8.1075C6.20899 8.1075 6.95645 7.51723 7.44171 7.0359C7.55365 6.92487 7.41885 6.76476 7.27946 6.83843C6.75197 7.11724 6.0275 7.43442 5.46154 7.43442C4.89557 7.43442 4.1711 7.11724 3.64361 6.83843C3.50422 6.76476 3.36943 6.92487 3.48136 7.0359C3.96662 7.51723 4.71408 8.1075 5.46154 8.1075Z"/>
</mask>
<path d="M7.44171 7.0359L8.03421 7.63323L8.03421 7.63323L7.44171 7.0359ZM3.48136 7.0359L4.07386 6.43857L3.48136 7.0359ZM3.64361 6.83843L3.25046 7.58227L3.64361 6.83843ZM7.27946 6.83843L6.88631 6.0946L6.88631 6.0946L7.27946 6.83843ZM6.84921 6.43857C6.63332 6.65271 6.37725 6.87221 6.11219 7.0337C5.8399 7.1996 5.6206 7.26615 5.46154 7.26615V8.94884C6.04992 8.94884 6.57809 8.72026 6.9877 8.47069C7.40455 8.21672 7.76483 7.90043 8.03421 7.63323L6.84921 6.43857ZM5.46154 7.26615C5.30247 7.26615 5.08317 7.1996 4.81088 7.0337C4.54582 6.87221 4.28975 6.65271 4.07386 6.43857L2.88886 7.63323C3.15824 7.90043 3.51852 8.21672 3.93537 8.47069C4.34499 8.72026 4.87315 8.94884 5.46154 8.94884V7.26615ZM3.25046 7.58227C3.53525 7.73279 3.88617 7.90077 4.25374 8.0328C4.61092 8.16109 5.03864 8.27576 5.46154 8.27576V6.59307C5.31847 6.59307 5.10097 6.54916 4.82255 6.44916C4.55452 6.35289 4.27946 6.22288 4.03676 6.0946L3.25046 7.58227ZM5.46154 8.27576C5.88443 8.27576 6.31215 8.16109 6.66933 8.0328C7.0369 7.90077 7.38782 7.7328 7.67261 7.58227L6.88631 6.0946C6.64361 6.22288 6.36855 6.35289 6.10052 6.44916C5.8221 6.54916 5.6046 6.59307 5.46154 6.59307V8.27576ZM8.03421 7.63323C8.20079 7.468 8.31582 7.23797 8.32411 6.97428C8.33208 6.72069 8.23937 6.49564 8.10201 6.33029C7.8205 5.99141 7.32151 5.86458 6.88631 6.0946L7.67261 7.58227C7.37681 7.73862 7.01491 7.655 6.80766 7.40552C6.70743 7.28486 6.63613 7.11605 6.64225 6.92141C6.64869 6.71667 6.73859 6.54829 6.84921 6.43857L8.03421 7.63323ZM4.07386 6.43857C4.18448 6.54829 4.27438 6.71667 4.28082 6.92141C4.28694 7.11605 4.21564 7.28486 4.11541 7.40552C3.90817 7.65499 3.54627 7.73862 3.25046 7.58227L4.03676 6.0946C3.60157 5.86457 3.10257 5.99141 2.82107 6.33029C2.6837 6.49564 2.59099 6.7207 2.59896 6.97428C2.60725 7.23797 2.72228 7.468 2.88886 7.63323L4.07386 6.43857Z" fill="white" mask="url(#path-2-inside-1_1503_2951)"/>
<g clip-path="url(#clip1_1503_2951)">
<path d="M7.0633 3.14718C6.97358 3.05685 6.97358 2.91204 7.0633 2.82171L7.54524 2.22467L7.54524 2.2143C7.66733 2.09351 7.86527 2.09351 7.98736 2.2143C8.10945 2.33509 8.10945 2.53093 7.98736 2.65172L7.41951 3.14718L7.3983 3.16598C7.35397 3.20101 7.2987 3.22035 7.24141 3.22035C7.17457 3.22035 7.11048 3.19402 7.0633 3.14718ZM3.40479 4.7932C3.40479 4.26153 3.61826 3.75164 3.99825 3.37569C4.37824 2.99975 4.89362 2.78854 5.43101 2.78854C6.55006 2.78854 7.45723 3.68606 7.45723 4.7932C7.45723 5.90034 6.55006 6.79785 5.43101 6.79785C4.31196 6.79785 3.40479 5.90034 3.40479 4.7932Z" fill="white"/>
</g>
</g>
<defs>
<clipPath id="clip0_1503_2951">
<rect width="8.97435" height="8.97435" fill="white" transform="translate(0.974121 0.535156)"/>
</clipPath>
<clipPath id="clip1_1503_2951">
<rect width="5.60897" height="5.60897" fill="white" transform="translate(2.9375 7.26562) rotate(-90)"/>
</clipPath>
</defs>
</svg>
