<svg width="8" height="8" viewBox="0 0 8 8" fill="none" xmlns="http://www.w3.org/2000/svg">
<g clip-path="url(#clip0_1503_2900)">
<path d="M4.33947 6.87034C5.73345 6.87034 6.8635 5.74029 6.8635 4.3463C6.8635 2.95231 5.73345 1.82227 4.33947 1.82227C2.94548 1.82227 1.81543 2.95231 1.81543 4.3463C1.81543 5.74029 2.94548 6.87034 4.33947 6.87034Z" stroke="#25324B" stroke-width="0.560897" stroke-linecap="round" stroke-linejoin="round"/>
<path d="M4.3396 5.74805V5.75085" stroke="#25324B" stroke-width="0.560897" stroke-linecap="round" stroke-linejoin="round"/>
<path d="M4.33946 4.76645C4.3343 4.67541 4.35886 4.58516 4.40944 4.50928C4.46002 4.43341 4.53389 4.37603 4.61991 4.34578C4.72532 4.30547 4.81994 4.24124 4.89631 4.15814C4.97268 4.07505 5.02872 3.97537 5.06002 3.86694C5.09132 3.75851 5.09703 3.64429 5.07668 3.53328C5.05634 3.42227 5.01051 3.3175 4.94279 3.22721C4.87508 3.13693 4.78733 3.06359 4.68646 3.01298C4.58559 2.96237 4.47434 2.93586 4.36148 2.93555C4.24863 2.93524 4.13724 2.96112 4.03608 3.01118C3.93493 3.06123 3.84678 3.13407 3.77856 3.22398" stroke="#25324B" stroke-width="0.560897" stroke-linecap="round" stroke-linejoin="round"/>
</g>
<defs>
<clipPath id="clip0_1503_2900">
<rect width="6.73076" height="6.73076" fill="white" transform="translate(0.974121 0.980469)"/>
</clipPath>
</defs>
</svg>
