<svg width="8" height="8" viewBox="0 0 8 8" fill="none" xmlns="http://www.w3.org/2000/svg">
<g clip-path="url(#clip0_1503_2928)">
<path fill-rule="evenodd" clip-rule="evenodd" d="M4.33957 1.80797C4.19081 1.80797 4.04815 1.86706 3.94296 1.97225C3.83777 2.07744 3.77867 2.2201 3.77867 2.36886C3.77867 2.51762 3.83777 2.66029 3.94296 2.76548C4.04815 2.87067 4.19081 2.92976 4.33957 2.92976C4.48833 2.92976 4.631 2.87067 4.73619 2.76548C4.84137 2.66029 4.90047 2.51762 4.90047 2.36886C4.90047 2.2201 4.84137 2.07744 4.73619 1.97225C4.631 1.86706 4.48833 1.80797 4.33957 1.80797ZM3.54634 1.57564C3.75672 1.36526 4.04205 1.24707 4.33957 1.24707C4.63709 1.24707 4.92242 1.36526 5.1328 1.57564C5.34318 1.78601 5.46137 2.07135 5.46137 2.36886C5.46137 2.66638 5.34318 2.95171 5.1328 3.16209C4.92242 3.37247 4.63709 3.49066 4.33957 3.49066C4.04205 3.49066 3.75672 3.37247 3.54634 3.16209C3.33597 2.95171 3.21778 2.66638 3.21778 2.36886C3.21778 2.07135 3.33597 1.78601 3.54634 1.57564ZM2.37643 2.92976C2.30205 2.92976 2.23072 2.95931 2.17813 3.0119C2.12553 3.0645 2.09598 3.13583 2.09598 3.21021C2.09598 3.28459 2.12553 3.35592 2.17813 3.40852C2.23072 3.46111 2.30205 3.49066 2.37643 3.49066C2.45081 3.49066 2.52215 3.46111 2.57474 3.40852C2.62733 3.35592 2.65688 3.28459 2.65688 3.21021C2.65688 3.13583 2.62733 3.0645 2.57474 3.0119C2.52215 2.95931 2.45081 2.92976 2.37643 2.92976ZM1.78151 2.61529C1.93929 2.45751 2.15329 2.36886 2.37643 2.36886C2.59957 2.36886 2.81357 2.45751 2.97135 2.61529C3.12914 2.77307 3.21778 2.98707 3.21778 3.21021C3.21778 3.43335 3.12914 3.64735 2.97135 3.80513C2.81357 3.96291 2.59957 4.05155 2.37643 4.05155C2.15329 4.05155 1.93929 3.96291 1.78151 3.80513C1.62373 3.64735 1.53509 3.43335 1.53509 3.21021C1.53509 2.98707 1.62373 2.77307 1.78151 2.61529ZM6.30271 2.92976C6.22833 2.92976 6.157 2.95931 6.1044 3.0119C6.05181 3.0645 6.02226 3.13583 6.02226 3.21021C6.02226 3.28459 6.05181 3.35592 6.1044 3.40852C6.157 3.46111 6.22833 3.49066 6.30271 3.49066C6.37709 3.49066 6.44842 3.46111 6.50102 3.40852C6.55361 3.35592 6.58316 3.28459 6.58316 3.21021C6.58316 3.13583 6.55361 3.0645 6.50102 3.0119C6.44842 2.95931 6.37709 2.92976 6.30271 2.92976ZM5.70779 2.61529C5.86557 2.45751 6.07957 2.36886 6.30271 2.36886C6.52585 2.36886 6.73985 2.45751 6.89763 2.61529C7.05541 2.77307 7.14406 2.98707 7.14406 3.21021C7.14406 3.43335 7.05541 3.64735 6.89763 3.80513C6.73985 3.96291 6.52585 4.05155 6.30271 4.05155C6.07957 4.05155 5.86557 3.96291 5.70779 3.80513C5.55001 3.64735 5.46137 3.43335 5.46137 3.21021C5.46137 2.98707 5.55001 2.77307 5.70779 2.61529ZM4.33957 4.33181C4.11528 4.33181 3.89614 4.399 3.71041 4.52473C3.53532 4.64326 3.3975 4.80866 3.31247 5.00167L3.24486 5.73425H5.43429L5.36667 5.00167C5.28164 4.80866 5.14382 4.64326 4.96874 4.52473C4.783 4.399 4.56386 4.33181 4.33957 4.33181ZM6.02226 5.73425H6.86361V5.45382C6.86361 5.45381 6.86361 5.45382 6.86361 5.45382C6.86359 5.33726 6.82727 5.22358 6.75968 5.12861C6.69209 5.03365 6.59659 4.9621 6.48645 4.92391C6.37632 4.88573 6.25702 4.8828 6.14515 4.91555C6.07875 4.93498 6.01692 4.96641 5.96254 5.00789C6.00156 5.15021 6.02226 5.29983 6.02226 5.4538V5.73425ZM5.72212 4.494C5.60439 4.32449 5.45586 4.17716 5.28316 4.06025C5.00461 3.87169 4.67595 3.77091 4.33957 3.77091C4.0032 3.77091 3.67454 3.87169 3.39598 4.06025C3.22328 4.17716 3.07475 4.32449 2.95703 4.494C2.87444 4.44404 2.78528 4.40467 2.69156 4.37724C2.46781 4.31175 2.22922 4.31759 2.00895 4.39396C1.78868 4.47033 1.59768 4.61343 1.46249 4.80337C1.32731 4.99331 1.25466 5.22064 1.25464 5.45378V6.01469C1.25464 6.16958 1.3802 6.29514 1.53509 6.29514H7.14406C7.29894 6.29514 7.4245 6.16958 7.4245 6.01469V5.4538C7.42449 5.22066 7.35184 4.99331 7.21665 4.80337C7.08146 4.61343 6.89046 4.47033 6.67019 4.39396C6.44992 4.31759 6.21133 4.31175 5.98758 4.37724C5.89387 4.40467 5.8047 4.44404 5.72212 4.494ZM2.7166 5.00789C2.66222 4.96641 2.6004 4.93498 2.534 4.91555C2.42212 4.8828 2.30283 4.88573 2.19269 4.92391C2.08256 4.9621 1.98706 5.03365 1.91946 5.12861C1.85187 5.22358 1.81555 5.33724 1.81554 5.4538C1.81554 5.45379 1.81554 5.4538 1.81554 5.4538V5.73425H2.65688V5.4538C2.65688 5.29983 2.67759 5.15021 2.7166 5.00789Z" fill="#25324B"/>
</g>
<defs>
<clipPath id="clip0_1503_2928">
<rect width="6.73076" height="6.73076" fill="white" transform="translate(0.974121 0.405273)"/>
</clipPath>
</defs>
</svg>
