<svg width="8" height="8" viewBox="0 0 8 8" fill="none" xmlns="http://www.w3.org/2000/svg">
<g clip-path="url(#clip0_1503_2804)">
<path d="M2.08099 4.52086C2.23587 4.52086 2.36143 4.3953 2.36143 4.24041C2.36143 4.08552 2.23587 3.95996 2.08099 3.95996C1.9261 3.95996 1.80054 4.08552 1.80054 4.24041C1.80054 4.3953 1.9261 4.52086 2.08099 4.52086Z" stroke="#25324B" stroke-width="0.560897" stroke-linecap="round" stroke-linejoin="round"/>
<path d="M4.04412 4.52086C4.19901 4.52086 4.32457 4.3953 4.32457 4.24041C4.32457 4.08552 4.19901 3.95996 4.04412 3.95996C3.88923 3.95996 3.76367 4.08552 3.76367 4.24041C3.76367 4.3953 3.88923 4.52086 4.04412 4.52086Z" stroke="#25324B" stroke-width="0.560897" stroke-linecap="round" stroke-linejoin="round"/>
<path d="M6.00726 4.52086C6.16214 4.52086 6.2877 4.3953 6.2877 4.24041C6.2877 4.08552 6.16214 3.95996 6.00726 3.95996C5.85237 3.95996 5.72681 4.08552 5.72681 4.24041C5.72681 4.3953 5.85237 4.52086 6.00726 4.52086Z" stroke="#25324B" stroke-width="0.560897" stroke-linecap="round" stroke-linejoin="round"/>
</g>
<defs>
<clipPath id="clip0_1503_2804">
<rect width="6.73076" height="6.73076" fill="white" transform="translate(0.678711 0.875)"/>
</clipPath>
</defs>
</svg>
