<svg width="12" height="13" viewBox="0 0 12 13" fill="none" xmlns="http://www.w3.org/2000/svg">
<circle cx="6.26229" cy="6.58358" r="5.60897" fill="white"/>
<g clip-path="url(#clip0_1503_2858)">
<path d="M6.26243 3.89062C5.7269 3.89063 5.2133 4.10336 4.83462 4.48204C4.45594 4.86072 4.2432 5.37432 4.2432 5.90985V7.11668L4.00527 7.35461C3.95822 7.40168 3.92618 7.46164 3.9132 7.52691C3.90022 7.59218 3.90689 7.65984 3.93235 7.72132C3.95782 7.78281 4.00094 7.83536 4.05627 7.87234C4.1116 7.90932 4.17665 7.92907 4.2432 7.92908H8.28166C8.34821 7.92907 8.41326 7.90932 8.4686 7.87234C8.52393 7.83536 8.56705 7.78281 8.59251 7.72132C8.61798 7.65984 8.62465 7.59218 8.61167 7.52691C8.59869 7.46164 8.56665 7.40168 8.51959 7.35461L8.28166 7.11668V5.90985C8.28166 5.37432 8.06892 4.86072 7.69024 4.48204C7.31156 4.10336 6.79797 3.89063 6.26243 3.89062ZM6.26243 9.27523C5.99467 9.27523 5.73787 9.16887 5.54853 8.97953C5.35919 8.79019 5.25282 8.53339 5.25282 8.26562H7.27205C7.27205 8.53339 7.16568 8.79019 6.97634 8.97953C6.787 9.16887 6.5302 9.27523 6.26243 9.27523Z" fill="#202430"/>
<circle cx="7.94486" cy="4.89994" r="0.98157" fill="#FF6550" stroke="white" stroke-width="0.280448"/>
</g>
<defs>
<clipPath id="clip0_1503_2858">
<rect width="6.73076" height="6.73076" fill="white" transform="translate(2.89697 3.21777)"/>
</clipPath>
</defs>
</svg>
