<svg width="8" height="8" viewBox="0 0 8 8" fill="none" xmlns="http://www.w3.org/2000/svg">
<g clip-path="url(#clip0_1503_2895)">
<path d="M3.86971 1.7297C3.98919 1.23723 4.68975 1.23723 4.80922 1.7297C4.82714 1.80368 4.86228 1.87239 4.91178 1.93022C4.96128 1.98806 5.02373 2.03339 5.09405 2.06252C5.16438 2.09166 5.24059 2.10378 5.31649 2.09789C5.39238 2.09201 5.46582 2.06829 5.53081 2.02866C5.96354 1.76504 6.45909 2.26031 6.19547 2.69332C6.1559 2.75829 6.13222 2.83168 6.12635 2.90752C6.12048 2.98337 6.13258 3.05952 6.16169 3.12981C6.19079 3.20009 6.23607 3.26251 6.29383 3.31201C6.3516 3.3615 6.42024 3.39666 6.49415 3.41464C6.98662 3.53411 6.98662 4.23467 6.49415 4.35414C6.42017 4.37206 6.35146 4.40721 6.29363 4.4567C6.2358 4.5062 6.19047 4.56865 6.16133 4.63898C6.13219 4.7093 6.12007 4.78551 6.12596 4.86141C6.13184 4.9373 6.15557 5.01074 6.19519 5.07573C6.45881 5.50846 5.96354 6.00402 5.53053 5.7404C5.46556 5.70082 5.39217 5.67714 5.31633 5.67127C5.24049 5.6654 5.16433 5.67751 5.09405 5.70661C5.02376 5.73571 4.96134 5.78099 4.91185 5.83876C4.86235 5.89652 4.82719 5.96516 4.80922 6.03907C4.68975 6.53154 3.98919 6.53154 3.86971 6.03907C3.85179 5.96509 3.81665 5.89639 3.76715 5.83855C3.71766 5.78072 3.6552 5.73539 3.58488 5.70625C3.51455 5.67712 3.43834 5.665 3.36244 5.67088C3.28655 5.67677 3.21312 5.70049 3.14812 5.74011C2.71539 6.00374 2.21984 5.50846 2.48346 5.07545C2.52303 5.01048 2.54671 4.9371 2.55258 4.86125C2.55845 4.78541 2.54635 4.70925 2.51724 4.63897C2.48814 4.56868 2.44287 4.50626 2.3851 4.45677C2.32733 4.40728 2.2587 4.37211 2.18478 4.35414C1.69231 4.23467 1.69231 3.53411 2.18478 3.41464C2.25876 3.39671 2.32747 3.36157 2.3853 3.31207C2.44314 3.26258 2.48847 3.20012 2.5176 3.1298C2.54674 3.05947 2.55886 2.98326 2.55297 2.90737C2.54709 2.83147 2.52337 2.75804 2.48374 2.69304C2.22012 2.26031 2.71539 1.76476 3.1484 2.02838C3.42773 2.19889 3.79231 2.04801 3.86971 1.7297Z" stroke="#25324B" stroke-width="0.560897" stroke-linecap="round" stroke-linejoin="round"/>
<path d="M5.18074 3.88431C5.18074 4.10745 5.0921 4.32145 4.93431 4.47924C4.77653 4.63702 4.56253 4.72566 4.33939 4.72566C4.11625 4.72566 3.90225 4.63702 3.74447 4.47924C3.58669 4.32145 3.49805 4.10745 3.49805 3.88431C3.49805 3.66118 3.58669 3.44718 3.74447 3.28939C3.90225 3.13161 4.11625 3.04297 4.33939 3.04297C4.56253 3.04297 4.77653 3.13161 4.93431 3.28939C5.0921 3.44718 5.18074 3.66118 5.18074 3.88431V3.88431Z" stroke="#25324B" stroke-width="0.560897" stroke-linecap="round" stroke-linejoin="round"/>
</g>
<defs>
<clipPath id="clip0_1503_2895">
<rect width="6.73076" height="6.73076" fill="white" transform="translate(0.974121 0.518555)"/>
</clipPath>
</defs>
</svg>
