<svg width="142" height="24" viewBox="0 0 142 24" fill="none" xmlns="http://www.w3.org/2000/svg">
<path d="M115.07 9.52369V23.9861H119.658V14.3445H136.438V23.9861H141.027V9.52369H115.07ZM119.134 4.83496H136.832C139.322 4.3727 141.092 2.12739 141.617 0.0141602H114.349C114.873 2.12739 116.708 4.30666 119.134 4.83496ZM101.108 23.9861C103.402 22.9955 104.648 21.2785 105.172 19.2974H84.5244V0.0801986H79.8705V23.9861H101.108ZM45.4578 4.76893H61.8448C64.3356 4.0425 66.3676 2.12739 66.892 0.0801986H40.935V14.2124H62.1726V19.1653H45.5234C42.9015 19.8917 40.6728 21.6748 39.5585 23.9861H66.7609V9.52369H45.5234L45.4578 4.76893ZM5.08029 4.83496H22.7782C25.2691 4.3727 27.1044 2.12739 27.5632 0.0141602H0.229736C0.75412 2.12739 2.58946 4.30666 5.08029 4.83496ZM5.08029 14.2785H22.7782C25.2691 13.8162 27.1044 11.5709 27.5632 9.45765H0.229736C0.75412 11.5709 2.58946 13.7502 5.08029 14.2785ZM5.08029 23.9861H22.7782C25.2691 23.5238 27.1044 21.2785 27.5632 19.1653H0.229736C0.75412 21.2785 2.58946 23.5238 5.08029 23.9861Z" fill="#202430"/>
</svg>
